<?xml version="1.0" standalone="yes"?>
<svg xmlns="http://www.w3.org/2000/svg" width="735" height="490">
<path style="fill:#3b3b3d; stroke:none;" d="M0 0L0 490L735 490L735 0L0 0z"/>
<path style="fill:#717172; stroke:none;" d="M339 136L340 137L339 136z"/>
<path style="fill:#fdfdfd; stroke:none;" d="M303 273L315.972 264.621L317 244L317 191L318.028 168.213L333 158C335.196 167.222 334 177.559 334 187L334 240C334 248.982 336.803 263.559 333.397 271.895C328.88 282.947 301.45 283.274 302.078 296.988C302.344 302.794 308.661 304.906 313 307.424C323.953 313.781 336.632 324.163 349 327L349 296L350.028 283.213L361 275.719L386 261L387 262C381.503 280.598 386 306.571 386 326C386 332.148 383.852 343.369 387.028 348.79C388.531 351.356 392 353.39 395 352.907C403.51 351.538 414.536 342.374 422 337.989C424.887 336.293 429.137 334.558 430.972 331.621C435.21 324.84 432 307.915 432 300L432 217L418.183 226.04L418 246L418 299L416.972 321.787L401 332L401 255C401 244.042 398.503 229.628 401.318 219.043C404.616 206.643 435.028 207.011 432.847 192.042C432.107 186.961 425.933 184.834 422 182.579C410.63 176.06 398.637 166.647 386 163C386.694 173.225 386 183.739 386 194C386 197.753 386.999 203.323 384.972 206.671C379.214 216.184 358.464 223.207 349 229L348 228C353.497 209.402 349 183.429 349 164C349 157.79 351.124 146.688 347.972 141.185C346.451 138.529 343.097 136.468 340 137.042C331.265 138.664 320.663 147.509 313 152.011C310.113 153.707 305.863 155.442 304.028 158.379C299.79 165.16 303 182.085 303 190L303 273z"/>
<path style="fill:#9c9c9d; stroke:none;" d="M342 136L343 137L342 136z"/>
<path style="fill:#717172; stroke:none;" d="M337 137L338 138L337 137z"/>
<path style="fill:#c4c4c5; stroke:none;" d="M338 137L339 138L338 137z"/>
<path style="fill:#717172; stroke:none;" d="M344 137L345 138L344 137z"/>
<path style="fill:#c4c4c5; stroke:none;" d="M336 138L337 139L336 138M345 138L346 139L345 138z"/>
<path style="fill:#717172; stroke:none;" d="M346 138L347 139L346 138z"/>
<path style="fill:#9c9c9d; stroke:none;" d="M334 139L335 140L334 139M347 139L348 140L347 139z"/>
<path style="fill:#717172; stroke:none;" d="M348 139L349 140L348 139M332 140L333 141L332 140z"/>
<path style="fill:#c4c4c5; stroke:none;" d="M333 140L334 141L333 140M348 140L349 141L348 140z"/>
<path style="fill:#717172; stroke:none;" d="M330 141L331 142L330 141z"/>
<path style="fill:#c4c4c5; stroke:none;" d="M331 141L332 142L331 141z"/>
<path style="fill:#9c9c9d; stroke:none;" d="M329 142L330 143L329 142z"/>
<path style="fill:#717172; stroke:none;" d="M327 143L328 144L327 143M325 144L326 145L325 144z"/>
<path style="fill:#c4c4c5; stroke:none;" d="M326 144L327 145L326 144z"/>
<path style="fill:#717172; stroke:none;" d="M323 145L324 146L323 145z"/>
<path style="fill:#c4c4c5; stroke:none;" d="M324 145L325 146L324 145z"/>
<path style="fill:#9c9c9d; stroke:none;" d="M322 146L323 147L322 146z"/>
<path style="fill:#717172; stroke:none;" d="M320 147L321 148L320 147M318 148L319 149L318 148z"/>
<path style="fill:#c4c4c5; stroke:none;" d="M319 148L320 149L319 148z"/>
<path style="fill:#717172; stroke:none;" d="M316 149L317 150L316 149z"/>
<path style="fill:#9c9c9d; stroke:none;" d="M317 149L318 150L317 149M315 150L316 151L315 150M313 151L314 152L313 151z"/>
<path style="fill:#717172; stroke:none;" d="M311 152L312 153L311 152z"/>
<path style="fill:#c4c4c5; stroke:none;" d="M312 152L313 153L312 152z"/>
<path style="fill:#717172; stroke:none;" d="M309 153L310 154L309 153z"/>
<path style="fill:#c4c4c5; stroke:none;" d="M310 153L311 154L310 153z"/>
<path style="fill:#9c9c9d; stroke:none;" d="M308 154L309 155L308 154z"/>
<path style="fill:#717172; stroke:none;" d="M306 155L307 156L306 155z"/>
<path style="fill:#c4c4c5; stroke:none;" d="M307 155L308 156L307 155z"/>
<path style="fill:#717172; stroke:none;" d="M304 156L305 157L304 156z"/>
<path style="fill:#c4c4c5; stroke:none;" d="M305 156L306 157L305 156z"/>
<path style="fill:#717172; stroke:none;" d="M302 157L303 158L302 157z"/>
<path style="fill:#9c9c9d; stroke:none;" d="M303 157L304 158L303 157z"/>
<path style="fill:#c4c4c5; stroke:none;" d="M302 158L302 273L303 273L303 193L302 158M332 158L333 159L332 158M330 159L331 160L330 159z"/>
<path style="fill:#717172; stroke:none;" d="M331 159L332 160L331 159z"/>
<path style="fill:#c4c4c5; stroke:none;" d="M333 159L333 274L334 274L334 194L333 159z"/>
<path style="fill:#9c9c9d; stroke:none;" d="M329 160L330 161L329 160z"/>
<path style="fill:#c4c4c5; stroke:none;" d="M327 161L328 162L327 161z"/>
<path style="fill:#717172; stroke:none;" d="M328 161L329 162L328 161z"/>
<path style="fill:#c4c4c5; stroke:none;" d="M325 162L326 163L325 162z"/>
<path style="fill:#717172; stroke:none;" d="M326 162L327 163L326 162z"/>
<path style="fill:#c4c4c5; stroke:none;" d="M386 162L387 163L386 162z"/>
<path style="fill:#9c9c9d; stroke:none;" d="M387 162L388 163L387 162z"/>
<path style="fill:#717172; stroke:none;" d="M324 163L325 164L324 163z"/>
<path style="fill:#c4c4c5; stroke:none;" d="M388 163L389 164L388 163z"/>
<path style="fill:#717172; stroke:none;" d="M389 163L390 164L389 163z"/>
<path style="fill:#9c9c9d; stroke:none;" d="M322 164L323 165L322 164z"/>
<path style="fill:#c4c4c5; stroke:none;" d="M390 164L391 165L390 164z"/>
<path style="fill:#717172; stroke:none;" d="M391 164L392 165L391 164z"/>
<path style="fill:#c4c4c5; stroke:none;" d="M320 165L321 166L320 165z"/>
<path style="fill:#717172; stroke:none;" d="M321 165L322 166L321 165z"/>
<path style="fill:#c4c4c5; stroke:none;" d="M386 165L387 166L386 165z"/>
<path style="fill:#9c9c9d; stroke:none;" d="M392 165L393 166L392 165z"/>
<path style="fill:#717172; stroke:none;" d="M393 165L394 166L393 165z"/>
<path style="fill:#c4c4c5; stroke:none;" d="M318 166L317 199L317 265L318 265L318 198L318 166z"/>
<path style="fill:#9c9c9d; stroke:none;" d="M319 166L320 167L319 166M394 166L395 167L394 166z"/>
<path style="fill:#717172; stroke:none;" d="M318 167L319 168L318 167z"/>
<path style="fill:#c4c4c5; stroke:none;" d="M395 167L396 168L395 167z"/>
<path style="fill:#9c9c9d; stroke:none;" d="M396 167L397 168L396 167z"/>
<path style="fill:#c4c4c5; stroke:none;" d="M397 168L398 169L397 168z"/>
<path style="fill:#717172; stroke:none;" d="M398 168L399 169L398 168z"/>
<path style="fill:#c4c4c5; stroke:none;" d="M399 169L400 170L399 169z"/>
<path style="fill:#9c9c9d; stroke:none;" d="M401 170L402 171L401 170z"/>
<path style="fill:#c4c4c5; stroke:none;" d="M402 171L403 172L402 171z"/>
<path style="fill:#717172; stroke:none;" d="M403 171L404 172L403 171z"/>
<path style="fill:#c4c4c5; stroke:none;" d="M404 172L405 173L404 172z"/>
<path style="fill:#717172; stroke:none;" d="M405 172L406 173L405 172z"/>
<path style="fill:#9c9c9d; stroke:none;" d="M406 173L407 174L406 173z"/>
<path style="fill:#717172; stroke:none;" d="M408 174L409 175L408 174z"/>
<path style="fill:#c4c4c5; stroke:none;" d="M409 175L410 176L409 175z"/>
<path style="fill:#717172; stroke:none;" d="M410 175L411 176L410 175z"/>
<path style="fill:#9c9c9d; stroke:none;" d="M411 176L412 177L411 176M413 177L414 178L413 177z"/>
<path style="fill:#c4c4c5; stroke:none;" d="M414 178L415 179L414 178z"/>
<path style="fill:#9c9c9d; stroke:none;" d="M415 178L416 179L415 178z"/>
<path style="fill:#c4c4c5; stroke:none;" d="M416 179L417 180L416 179z"/>
<path style="fill:#717172; stroke:none;" d="M417 179L418 180L417 179z"/>
<path style="fill:#c4c4c5; stroke:none;" d="M418 180L419 181L418 180z"/>
<path style="fill:#717172; stroke:none;" d="M419 180L420 181L419 180z"/>
<path style="fill:#9c9c9d; stroke:none;" d="M420 181L421 182L420 181z"/>
<path style="fill:#c4c4c5; stroke:none;" d="M421 182L422 183L421 182z"/>
<path style="fill:#717172; stroke:none;" d="M422 182L423 183L422 182z"/>
<path style="fill:#c4c4c5; stroke:none;" d="M423 183L424 184L423 183z"/>
<path style="fill:#9c9c9d; stroke:none;" d="M425 184L426 185L425 184M427 185L428 186L427 185z"/>
<path style="fill:#c4c4c5; stroke:none;" d="M428 186L429 187L428 186z"/>
<path style="fill:#717172; stroke:none;" d="M429 186L430 187L429 186z"/>
<path style="fill:#c4c4c5; stroke:none;" d="M430 187L431 188L430 187z"/>
<path style="fill:#717172; stroke:none;" d="M431 187L432 188L431 187z"/>
<path style="fill:#9c9c9d; stroke:none;" d="M432 188L434 190L432 188z"/>
<path style="fill:#717172; stroke:none;" d="M433 188L434 189L433 188z"/>
<path style="fill:#c4c4c5; stroke:none;" d="M401 189L401 198L402 198L401 189z"/>
<path style="fill:#717172; stroke:none;" d="M402 189L403 190L402 189z"/>
<path style="fill:#c4c4c5; stroke:none;" d="M403 189L404 190L403 189z"/>
<path style="fill:#3b3b3d; stroke:none;" d="M402 190L402 197L409 194L402 190z"/>
<path style="fill:#717172; stroke:none;" d="M404 190L405 191L404 190z"/>
<path style="fill:#c4c4c5; stroke:none;" d="M405 190L406 191L405 190z"/>
<path style="fill:#717172; stroke:none;" d="M433 190L434 191L433 190z"/>
<path style="fill:#9c9c9d; stroke:none;" d="M406 191L407 192L406 191M433 191L433 197L434 197L433 191z"/>
<path style="fill:#717172; stroke:none;" d="M407 192L408 193L407 192z"/>
<path style="fill:#c4c4c5; stroke:none;" d="M408 192L409 193L408 192z"/>
<path style="fill:#9c9c9d; stroke:none;" d="M409 193L410 194L409 193z"/>
<path style="fill:#c4c4c5; stroke:none;" d="M408 194L409 195L408 194z"/>
<path style="fill:#9c9c9d; stroke:none;" d="M406 195L407 196L406 195z"/>
<path style="fill:#717172; stroke:none;" d="M404 196L405 197L404 196M402 197L403 198L402 197z"/>
<path style="fill:#c4c4c5; stroke:none;" d="M403 197L404 198L403 197z"/>
<path style="fill:#717172; stroke:none;" d="M433.333 197.667L433.667 198.333L433.333 197.667z"/>
<path style="fill:#9c9c9d; stroke:none;" d="M432 198L433 199L432 198z"/>
<path style="fill:#c4c4c5; stroke:none;" d="M430 199L431 200L430 199z"/>
<path style="fill:#717172; stroke:none;" d="M431 199L432 200L431 199z"/>
<path style="fill:#c4c4c5; stroke:none;" d="M428 200L429 201L428 200z"/>
<path style="fill:#717172; stroke:none;" d="M429 200L430 201L429 200z"/>
<path style="fill:#9c9c9d; stroke:none;" d="M427 201L428 202L427 201M425 202L426 203L425 202z"/>
<path style="fill:#c4c4c5; stroke:none;" d="M423 203L424 204L423 203z"/>
<path style="fill:#717172; stroke:none;" d="M424 203L425 204L424 203z"/>
<path style="fill:#9c9c9d; stroke:none;" d="M422 204L423 205L422 204M420 205L421 206L420 205z"/>
<path style="fill:#c4c4c5; stroke:none;" d="M418 206L419 207L418 206z"/>
<path style="fill:#717172; stroke:none;" d="M385 207L386 208L385 207z"/>
<path style="fill:#c4c4c5; stroke:none;" d="M416 207L417 208L416 207z"/>
<path style="fill:#717172; stroke:none;" d="M417 207L418 208L417 207M383 208L384 209L383 208z"/>
<path style="fill:#c4c4c5; stroke:none;" d="M414 208L415 209L414 208z"/>
<path style="fill:#9c9c9d; stroke:none;" d="M415 208L416 209L415 208z"/>
<path style="fill:#717172; stroke:none;" d="M381 209L382 210L381 209z"/>
<path style="fill:#c4c4c5; stroke:none;" d="M382 209L383 210L382 209z"/>
<path style="fill:#9c9c9d; stroke:none;" d="M413 209L414 210L413 209M380 210L381 211L380 210z"/>
<path style="fill:#c4c4c5; stroke:none;" d="M411 210L412 211L411 210z"/>
<path style="fill:#717172; stroke:none;" d="M412 210L413 211L412 210z"/>
<path style="fill:#9c9c9d; stroke:none;" d="M378 211L379 212L378 211z"/>
<path style="fill:#c4c4c5; stroke:none;" d="M409 211L410 212L409 211z"/>
<path style="fill:#717172; stroke:none;" d="M410 211L411 212L410 211M376 212L377 213L376 212z"/>
<path style="fill:#c4c4c5; stroke:none;" d="M377 212L378 213L377 212z"/>
<path style="fill:#9c9c9d; stroke:none;" d="M408 212L409 213L408 212z"/>
<path style="fill:#717172; stroke:none;" d="M374 213L375 214L374 213z"/>
<path style="fill:#c4c4c5; stroke:none;" d="M375 213L376 214L375 213z"/>
<path style="fill:#9c9c9d; stroke:none;" d="M406 213L407 214L406 213M373 214L374 215L373 214z"/>
<path style="fill:#c4c4c5; stroke:none;" d="M404 214L405 215L404 214z"/>
<path style="fill:#9c9c9d; stroke:none;" d="M371 215L372 216L371 215z"/>
<path style="fill:#c4c4c5; stroke:none;" d="M402 215L403 216L402 215z"/>
<path style="fill:#717172; stroke:none;" d="M403 215L404 216L403 215M369 216L370 217L369 216z"/>
<path style="fill:#c4c4c5; stroke:none;" d="M370 216L371 217L370 216M401 216L401 302C401 308.735 397.836 327.487 403 332L402 302L402 247L401 216z"/>
<path style="fill:#9c9c9d; stroke:none;" d="M432 216L433 217L432 216z"/>
<path style="fill:#c4c4c5; stroke:none;" d="M368 217L369 218L368 217z"/>
<path style="fill:#9c9c9d; stroke:none;" d="M430 217L431 218L430 217z"/>
<path style="fill:#c4c4c5; stroke:none;" d="M432 217L432 331L433 331L433 252L432 217z"/>
<path style="fill:#9c9c9d; stroke:none;" d="M366 218L367 219L366 218z"/>
<path style="fill:#717172; stroke:none;" d="M428 218L429 219L428 218z"/>
<path style="fill:#c4c4c5; stroke:none;" d="M429 218L430 219L429 218z"/>
<path style="fill:#717172; stroke:none;" d="M364 219L365 220L364 219z"/>
<path style="fill:#c4c4c5; stroke:none;" d="M365 219L366 220L365 219z"/>
<path style="fill:#717172; stroke:none;" d="M426 219L427 220L426 219z"/>
<path style="fill:#c4c4c5; stroke:none;" d="M427 219L428 220L427 219z"/>
<path style="fill:#717172; stroke:none;" d="M362 220L363 221L362 220z"/>
<path style="fill:#c4c4c5; stroke:none;" d="M363 220L364 221L363 220z"/>
<path style="fill:#9c9c9d; stroke:none;" d="M425 220L426 221L425 220M361 221L362 222L361 221z"/>
<path style="fill:#717172; stroke:none;" d="M423 221L424 222L423 221z"/>
<path style="fill:#9c9c9d; stroke:none;" d="M359 222L360 223L359 222z"/>
<path style="fill:#717172; stroke:none;" d="M421 222L422 223L421 222z"/>
<path style="fill:#c4c4c5; stroke:none;" d="M422 222L423 223L422 222z"/>
<path style="fill:#717172; stroke:none;" d="M357 223L358 224L357 223z"/>
<path style="fill:#c4c4c5; stroke:none;" d="M358 223L359 224L358 223z"/>
<path style="fill:#9c9c9d; stroke:none;" d="M420 223L421 224L420 223z"/>
<path style="fill:#717172; stroke:none;" d="M355 224L356 225L355 224z"/>
<path style="fill:#c4c4c5; stroke:none;" d="M356 224L357 225L356 224z"/>
<path style="fill:#9c9c9d; stroke:none;" d="M418 224L419 225L418 224z"/>
<path style="fill:#717172; stroke:none;" d="M353 225L354 226L353 225z"/>
<path style="fill:#9c9c9d; stroke:none;" d="M354 225L355 226L354 225z"/>
<path style="fill:#c4c4c5; stroke:none;" d="M385 225L387 227L385 225M417 225L418 226L417 225z"/>
<path style="fill:#9c9c9d; stroke:none;" d="M352 226L353 227L352 226z"/>
<path style="fill:#c4c4c5; stroke:none;" d="M353 226L354 227L353 226M383 226L384 227L383 226z"/>
<path style="fill:#717172; stroke:none;" d="M384 226L385 227L384 226z"/>
<path style="fill:#3b3b3d; stroke:none;" d="M385 226C375.704 231.69 355.832 238.092 350.028 247.379C347.485 251.447 349 259.35 349 264C363.647 257.689 393.428 246.085 385 226z"/>
<path style="fill:#c4c4c5; stroke:none;" d="M348 227L349 228L348 227z"/>
<path style="fill:#717172; stroke:none;" d="M350 227L351 228L350 227z"/>
<path style="fill:#c4c4c5; stroke:none;" d="M351 227L352 228L351 227z"/>
<path style="fill:#9c9c9d; stroke:none;" d="M382 227L383 228L382 227z"/>
<path style="fill:#c4c4c5; stroke:none;" d="M417 227L418 228L417 227M349 228L350 229L349 228z"/>
<path style="fill:#9c9c9d; stroke:none;" d="M380 228L381 229L380 228z"/>
<path style="fill:#c4c4c5; stroke:none;" d="M378 229L379 230L378 229z"/>
<path style="fill:#717172; stroke:none;" d="M379 229L380 230L379 229z"/>
<path style="fill:#c4c4c5; stroke:none;" d="M386 229L387 230L386 229M417 229L417 323L418 323L418 258L417 229M376 230L377 231L376 230z"/>
<path style="fill:#717172; stroke:none;" d="M377 230L378 231L377 230z"/>
<path style="fill:#c4c4c5; stroke:none;" d="M374 231L375 232L374 231z"/>
<path style="fill:#9c9c9d; stroke:none;" d="M375 231L376 232L375 231z"/>
<path style="fill:#c4c4c5; stroke:none;" d="M373 232L374 233L373 232M371 233L372 234L371 233z"/>
<path style="fill:#717172; stroke:none;" d="M372 233L373 234L372 233z"/>
<path style="fill:#c4c4c5; stroke:none;" d="M369 234L370 235L369 234z"/>
<path style="fill:#9c9c9d; stroke:none;" d="M370 234L371 235L370 234M368 235L369 236L368 235z"/>
<path style="fill:#c4c4c5; stroke:none;" d="M366 236L367 237L366 236M364 237L365 238L364 237z"/>
<path style="fill:#717172; stroke:none;" d="M365 237L366 238L365 237z"/>
<path style="fill:#c4c4c5; stroke:none;" d="M362 238L363 239L362 238z"/>
<path style="fill:#9c9c9d; stroke:none;" d="M363 238L364 239L363 238M361 239L362 240L361 239z"/>
<path style="fill:#c4c4c5; stroke:none;" d="M359 240L360 241L359 240M357 241L358 242L357 241z"/>
<path style="fill:#717172; stroke:none;" d="M358 241L359 242L358 241z"/>
<path style="fill:#c4c4c5; stroke:none;" d="M386.333 241.667L386.667 242.333L386.333 241.667z"/>
<path style="fill:#717172; stroke:none;" d="M356 242L357 243L356 242z"/>
<path style="fill:#9c9c9d; stroke:none;" d="M354 243L355 244L354 243M385 243L386 244L385 243z"/>
<path style="fill:#c4c4c5; stroke:none;" d="M352 244L353 245L352 244z"/>
<path style="fill:#717172; stroke:none;" d="M353 244L354 245L353 244M383 244L384 245L383 244z"/>
<path style="fill:#c4c4c5; stroke:none;" d="M384 244L385 245L384 244M350 245L351 246L350 245z"/>
<path style="fill:#9c9c9d; stroke:none;" d="M351 245L352 246L351 245z"/>
<path style="fill:#717172; stroke:none;" d="M381 245L382 246L381 245z"/>
<path style="fill:#c4c4c5; stroke:none;" d="M382 245L383 246L382 245z"/>
<path style="fill:#9c9c9d; stroke:none;" d="M349 246L350 247L349 246M380 246L381 247L380 246M378 247L379 248L378 247z"/>
<path style="fill:#717172; stroke:none;" d="M376 248L377 249L376 248z"/>
<path style="fill:#c4c4c5; stroke:none;" d="M377 248L378 249L377 248z"/>
<path style="fill:#717172; stroke:none;" d="M374 249L375 250L374 249z"/>
<path style="fill:#c4c4c5; stroke:none;" d="M375 249L376 250L375 249z"/>
<path style="fill:#9c9c9d; stroke:none;" d="M373 250L374 251L373 250z"/>
<path style="fill:#717172; stroke:none;" d="M371 251L372 252L371 251M369 252L370 253L369 252z"/>
<path style="fill:#c4c4c5; stroke:none;" d="M370 252L371 253L370 252z"/>
<path style="fill:#717172; stroke:none;" d="M367 253L368 254L367 253z"/>
<path style="fill:#c4c4c5; stroke:none;" d="M368 253L369 254L368 253z"/>
<path style="fill:#9c9c9d; stroke:none;" d="M366 254L367 255L366 254z"/>
<path style="fill:#717172; stroke:none;" d="M364 255L365 256L364 255M362 256L363 257L362 256z"/>
<path style="fill:#c4c4c5; stroke:none;" d="M363 256L364 257L363 256z"/>
<path style="fill:#9c9c9d; stroke:none;" d="M361 257L362 258L361 257M359 258L360 259L359 258z"/>
<path style="fill:#717172; stroke:none;" d="M357 259L358 260L357 259z"/>
<path style="fill:#c4c4c5; stroke:none;" d="M358 259L359 260L358 259z"/>
<path style="fill:#717172; stroke:none;" d="M355 260L356 261L355 260z"/>
<path style="fill:#c4c4c5; stroke:none;" d="M356 260L357 261L356 260z"/>
<path style="fill:#9c9c9d; stroke:none;" d="M354 261L355 262L354 261z"/>
<path style="fill:#c4c4c5; stroke:none;" d="M385 261L386 262L385 261z"/>
<path style="fill:#9c9c9d; stroke:none;" d="M352 262L353 263L352 262z"/>
<path style="fill:#c4c4c5; stroke:none;" d="M383 262L384 263L383 262z"/>
<path style="fill:#717172; stroke:none;" d="M384 262L385 263L384 262z"/>
<path style="fill:#c4c4c5; stroke:none;" d="M386 262L387 263L386 262M348 263L349 264L348 263z"/>
<path style="fill:#717172; stroke:none;" d="M350 263L351 264L350 263z"/>
<path style="fill:#c4c4c5; stroke:none;" d="M351 263L352 264L351 263z"/>
<path style="fill:#9c9c9d; stroke:none;" d="M382 263L383 264L382 263z"/>
<path style="fill:#c4c4c5; stroke:none;" d="M349 264L350 265L349 264z"/>
<path style="fill:#9c9c9d; stroke:none;" d="M380 264L381 265L380 264M316 265L317 266L316 265z"/>
<path style="fill:#c4c4c5; stroke:none;" d="M378 265L379 266L378 265z"/>
<path style="fill:#717172; stroke:none;" d="M379 265L380 266L379 265z"/>
<path style="fill:#c4c4c5; stroke:none;" d="M314 266L315 267L314 266M376 266L377 267L376 266z"/>
<path style="fill:#717172; stroke:none;" d="M377 266L378 267L377 266z"/>
<path style="fill:#c4c4c5; stroke:none;" d="M312 267L313 268L312 267z"/>
<path style="fill:#717172; stroke:none;" d="M313 267L314 268L313 267z"/>
<path style="fill:#c4c4c5; stroke:none;" d="M374 267L375 268L374 267z"/>
<path style="fill:#9c9c9d; stroke:none;" d="M375 267L376 268L375 267z"/>
<path style="fill:#717172; stroke:none;" d="M311 268L312 269L311 268z"/>
<path style="fill:#9c9c9d; stroke:none;" d="M373 268L374 269L373 268M309 269L310 270L309 269z"/>
<path style="fill:#c4c4c5; stroke:none;" d="M371 269L372 270L371 269z"/>
<path style="fill:#717172; stroke:none;" d="M372 269L373 270L372 269z"/>
<path style="fill:#c4c4c5; stroke:none;" d="M307 270L308 271L307 270M369 270L370 271L369 270z"/>
<path style="fill:#717172; stroke:none;" d="M370 270L371 271L370 270z"/>
<path style="fill:#c4c4c5; stroke:none;" d="M305 271L306 272L305 271z"/>
<path style="fill:#717172; stroke:none;" d="M306 271L307 272L306 271z"/>
<path style="fill:#9c9c9d; stroke:none;" d="M368 271L369 272L368 271z"/>
<path style="fill:#717172; stroke:none;" d="M304 272L305 273L304 272z"/>
<path style="fill:#9c9c9d; stroke:none;" d="M366 272L367 273L366 272z"/>
<path style="fill:#717172; stroke:none;" d="M302.667 273.333L303.333 273.667L302.667 273.333z"/>
<path style="fill:#c4c4c5; stroke:none;" d="M364 273L365 274L364 273z"/>
<path style="fill:#717172; stroke:none;" d="M365 273L366 274L365 273M331 274L332 275L331 274z"/>
<path style="fill:#c4c4c5; stroke:none;" d="M332 274L333 275L332 274z"/>
<path style="fill:#717172; stroke:none;" d="M363 274L364 275L363 274M329 275L330 276L329 275z"/>
<path style="fill:#c4c4c5; stroke:none;" d="M330 275L331 276L330 275z"/>
<path style="fill:#9c9c9d; stroke:none;" d="M361 275L362 276L361 275M328 276L329 277L328 276z"/>
<path style="fill:#c4c4c5; stroke:none;" d="M359 276L360 277L359 276z"/>
<path style="fill:#9c9c9d; stroke:none;" d="M326 277L327 278L326 277z"/>
<path style="fill:#c4c4c5; stroke:none;" d="M357 277L358 278L357 277z"/>
<path style="fill:#717172; stroke:none;" d="M358 277L359 278L358 277M324 278L325 279L324 278z"/>
<path style="fill:#c4c4c5; stroke:none;" d="M325 278L326 279L325 278z"/>
<path style="fill:#9c9c9d; stroke:none;" d="M356 278L357 279L356 278z"/>
<path style="fill:#717172; stroke:none;" d="M322 279L323 280L322 279z"/>
<path style="fill:#c4c4c5; stroke:none;" d="M323 279L324 280L323 279z"/>
<path style="fill:#9c9c9d; stroke:none;" d="M354 279L355 280L354 279M321 280L322 281L321 280z"/>
<path style="fill:#c4c4c5; stroke:none;" d="M352 280L353 281L352 280z"/>
<path style="fill:#717172; stroke:none;" d="M353 280L354 281L353 280M319 281L320 282L319 281z"/>
<path style="fill:#c4c4c5; stroke:none;" d="M350 281L351 282L350 281z"/>
<path style="fill:#717172; stroke:none;" d="M351 281L352 282L351 281M317 282L318 283L317 282z"/>
<path style="fill:#c4c4c5; stroke:none;" d="M318 282L319 283L318 282z"/>
<path style="fill:#9c9c9d; stroke:none;" d="M349 282L350 283L349 282z"/>
<path style="fill:#c4c4c5; stroke:none;" d="M316 283L317 284L316 283z"/>
<path style="fill:#9c9c9d; stroke:none;" d="M314 284L315 285L314 284M312 285L313 286L312 285z"/>
<path style="fill:#c4c4c5; stroke:none;" d="M313 285L314 286L313 285z"/>
<path style="fill:#717172; stroke:none;" d="M310 286L311 287L310 286z"/>
<path style="fill:#c4c4c5; stroke:none;" d="M311 286L312 287L311 286M309 287L310 288L309 287z"/>
<path style="fill:#9c9c9d; stroke:none;" d="M307 288L308 289L307 288z"/>
<path style="fill:#717172; stroke:none;" d="M305 289L306 290L305 289z"/>
<path style="fill:#c4c4c5; stroke:none;" d="M306 289L307 290L306 289z"/>
<path style="fill:#717172; stroke:none;" d="M303 290L304 291L303 290z"/>
<path style="fill:#c4c4c5; stroke:none;" d="M304 290L305 291L304 290z"/>
<path style="fill:#9c9c9d; stroke:none;" d="M302 291L303 292L302 291M301 292L302 302L303 302L301 292z"/>
<path style="fill:#c4c4c5; stroke:none;" d="M331 292L332 293L331 292z"/>
<path style="fill:#717172; stroke:none;" d="M332 292L333 293L332 292z"/>
<path style="fill:#c4c4c5; stroke:none;" d="M333 292L333 301L334 301L333 292z"/>
<path style="fill:#9c9c9d; stroke:none;" d="M330 293L331 294L330 293z"/>
<path style="fill:#3b3b3d; stroke:none;" d="M326 296L326 297L333 300L333 293L326 296z"/>
<path style="fill:#9c9c9d; stroke:none;" d="M328 294L329 295L328 294z"/>
<path style="fill:#c4c4c5; stroke:none;" d="M326 295L327 296L326 295z"/>
<path style="fill:#717172; stroke:none;" d="M327 295L328 296L327 295z"/>
<path style="fill:#9c9c9d; stroke:none;" d="M325 296L326 297L325 296z"/>
<path style="fill:#c4c4c5; stroke:none;" d="M326 297L327 298L326 297z"/>
<path style="fill:#717172; stroke:none;" d="M327 297L328 298L327 297z"/>
<path style="fill:#9c9c9d; stroke:none;" d="M328 298L329 299L328 298M330 299L331 300L330 299z"/>
<path style="fill:#c4c4c5; stroke:none;" d="M331 300L332 301L331 300z"/>
<path style="fill:#717172; stroke:none;" d="M332 300L333 301L332 300M301 301L302 302L301 301M303 302L304 303L303 302z"/>
<path style="fill:#c4c4c5; stroke:none;" d="M304 302L305 303L304 302z"/>
<path style="fill:#717172; stroke:none;" d="M305 303L306 304L305 303z"/>
<path style="fill:#c4c4c5; stroke:none;" d="M306 303L307 304L306 303z"/>
<path style="fill:#9c9c9d; stroke:none;" d="M307 304L308 305L307 304z"/>
<path style="fill:#717172; stroke:none;" d="M308 305L309 306L308 305z"/>
<path style="fill:#c4c4c5; stroke:none;" d="M309 305L310 306L309 305z"/>
<path style="fill:#717172; stroke:none;" d="M310 306L311 307L310 306z"/>
<path style="fill:#c4c4c5; stroke:none;" d="M311 306L312 307L311 306z"/>
<path style="fill:#717172; stroke:none;" d="M312 307L313 308L312 307z"/>
<path style="fill:#c4c4c5; stroke:none;" d="M313 307L314 308L313 307z"/>
<path style="fill:#9c9c9d; stroke:none;" d="M314 308L315 309L314 308z"/>
<path style="fill:#c4c4c5; stroke:none;" d="M316 309L317 310L316 309z"/>
<path style="fill:#717172; stroke:none;" d="M317 310L318 311L317 310z"/>
<path style="fill:#c4c4c5; stroke:none;" d="M318 310L319 311L318 310z"/>
<path style="fill:#717172; stroke:none;" d="M319 311L320 312L319 311z"/>
<path style="fill:#9c9c9d; stroke:none;" d="M321 312L322 313L321 312z"/>
<path style="fill:#717172; stroke:none;" d="M322 313L323 314L322 313z"/>
<path style="fill:#c4c4c5; stroke:none;" d="M323 313L324 314L323 313z"/>
<path style="fill:#717172; stroke:none;" d="M324 314L325 315L324 314z"/>
<path style="fill:#c4c4c5; stroke:none;" d="M325 314L326 315L325 314z"/>
<path style="fill:#9c9c9d; stroke:none;" d="M326 315L327 316L326 315M328 316L329 317L328 316z"/>
<path style="fill:#717172; stroke:none;" d="M329 317L330 318L329 317z"/>
<path style="fill:#c4c4c5; stroke:none;" d="M330 317L331 318L330 317z"/>
<path style="fill:#717172; stroke:none;" d="M331 318L332 319L331 318z"/>
<path style="fill:#c4c4c5; stroke:none;" d="M332 318L333 319L332 318z"/>
<path style="fill:#9c9c9d; stroke:none;" d="M333 319L334 320L333 319z"/>
<path style="fill:#717172; stroke:none;" d="M334 320L335 321L334 320z"/>
<path style="fill:#9c9c9d; stroke:none;" d="M335 320L336 321L335 320z"/>
<path style="fill:#717172; stroke:none;" d="M336 321L337 322L336 321z"/>
<path style="fill:#c4c4c5; stroke:none;" d="M337 321L338 322L337 321z"/>
<path style="fill:#717172; stroke:none;" d="M338 322L339 323L338 322z"/>
<path style="fill:#c4c4c5; stroke:none;" d="M339 322L340 323L339 322z"/>
<path style="fill:#9c9c9d; stroke:none;" d="M340 323L341 324L340 323z"/>
<path style="fill:#717172; stroke:none;" d="M415 323L416 324L415 323z"/>
<path style="fill:#c4c4c5; stroke:none;" d="M416 323L417 324L416 323z"/>
<path style="fill:#9c9c9d; stroke:none;" d="M342 324L343 325L342 324z"/>
<path style="fill:#717172; stroke:none;" d="M413 324L414 325L413 324z"/>
<path style="fill:#c4c4c5; stroke:none;" d="M414 324L415 325L414 324z"/>
<path style="fill:#717172; stroke:none;" d="M343 325L344 326L343 325z"/>
<path style="fill:#c4c4c5; stroke:none;" d="M344 325L345 326L344 325z"/>
<path style="fill:#9c9c9d; stroke:none;" d="M412 325L413 326L412 325M345 326L346 327L345 326M410 326L411 327L410 326M347 327L348 328L347 327z"/>
<path style="fill:#c4c4c5; stroke:none;" d="M348 327L349 328L348 327z"/>
<path style="fill:#717172; stroke:none;" d="M408 327L409 328L408 327z"/>
<path style="fill:#c4c4c5; stroke:none;" d="M409 327L410 328L409 327z"/>
<path style="fill:#717172; stroke:none;" d="M406 328L407 329L406 328z"/>
<path style="fill:#c4c4c5; stroke:none;" d="M407 328L408 329L407 328z"/>
<path style="fill:#9c9c9d; stroke:none;" d="M405 329L406 330L405 329z"/>
<path style="fill:#717172; stroke:none;" d="M403 330L404 331L403 330z"/>
<path style="fill:#9c9c9d; stroke:none;" d="M432 331L433 332L432 331M431 332L432 333L431 332z"/>
<path style="fill:#c4c4c5; stroke:none;" d="M429 333L430 334L429 333z"/>
<path style="fill:#717172; stroke:none;" d="M430 333L431 334L430 333z"/>
<path style="fill:#c4c4c5; stroke:none;" d="M427 334L428 335L427 334z"/>
<path style="fill:#717172; stroke:none;" d="M428 334L429 335L428 334z"/>
<path style="fill:#9c9c9d; stroke:none;" d="M426 335L427 336L426 335M424 336L425 337L424 336z"/>
<path style="fill:#717172; stroke:none;" d="M425 336L426 337L425 336z"/>
<path style="fill:#c4c4c5; stroke:none;" d="M422 337L423 338L422 337z"/>
<path style="fill:#717172; stroke:none;" d="M423 337L424 338L423 337z"/>
<path style="fill:#9c9c9d; stroke:none;" d="M421 338L422 339L421 338M419 339L420 340L419 339z"/>
<path style="fill:#c4c4c5; stroke:none;" d="M417 340L418 341L417 340M415 341L416 342L415 341z"/>
<path style="fill:#717172; stroke:none;" d="M416 341L417 342L416 341z"/>
<path style="fill:#9c9c9d; stroke:none;" d="M414 342L415 343L414 342M412 343L413 344L412 343z"/>
<path style="fill:#c4c4c5; stroke:none;" d="M410 344L411 345L410 344z"/>
<path style="fill:#717172; stroke:none;" d="M411 344L412 345L411 344z"/>
<path style="fill:#c4c4c5; stroke:none;" d="M408 345L409 346L408 345z"/>
<path style="fill:#717172; stroke:none;" d="M409 345L410 346L409 345z"/>
<path style="fill:#c4c4c5; stroke:none;" d="M406 346L407 347L406 346z"/>
<path style="fill:#9c9c9d; stroke:none;" d="M407 346L408 347L407 346M405 347L406 348L405 347z"/>
<path style="fill:#c4c4c5; stroke:none;" d="M403 348L404 349L403 348z"/>
<path style="fill:#717172; stroke:none;" d="M404 348L405 349L404 348z"/>
<path style="fill:#c4c4c5; stroke:none;" d="M386 349L387 350L386 349M401 349L402 350L401 349z"/>
<path style="fill:#717172; stroke:none;" d="M402 349L403 350L402 349M386 350L387 351L386 350z"/>
<path style="fill:#9c9c9d; stroke:none;" d="M387 350L388 351L387 350M400 350L401 351L400 350z"/>
<path style="fill:#717172; stroke:none;" d="M388 351L389 352L388 351z"/>
<path style="fill:#c4c4c5; stroke:none;" d="M389 351L390 352L389 351z"/>
<path style="fill:#9c9c9d; stroke:none;" d="M398 351L399 352L398 351z"/>
<path style="fill:#717172; stroke:none;" d="M390 352L391 353L390 352z"/>
<path style="fill:#c4c4c5; stroke:none;" d="M391 352L392 353L391 352M396 352L397 353L396 352z"/>
<path style="fill:#717172; stroke:none;" d="M397 352L398 353L397 352z"/>
<path style="fill:#9c9c9d; stroke:none;" d="M392 353L393 354L392 353z"/>
<path style="fill:#717172; stroke:none;" d="M395 353L396 354L395 353z"/>
</svg>
